<svg width="172" height="34" viewBox="0 0 172 34" fill="none" xmlns="http://www.w3.org/2000/svg">
<path d="M14.637 17.71C14.637 16.115 15.088 14.696 16.848 14.696C18.003 14.696 18.619 15.125 18.773 16.148L20.324 15.983C20.148 14.333 19.048 13.266 16.848 13.266C14.208 13.266 13.064 15.037 13.064 17.71C13.064 20.394 14.208 22.154 16.848 22.154C18.102 22.154 19.092 21.989 20.28 21.252V17.226H17.002V18.601H18.751V20.328C18.311 20.57 17.684 20.724 16.848 20.724C15.088 20.724 14.637 19.305 14.637 17.71ZM25.6044 22.154C28.3214 22.154 29.4544 20.416 29.4544 17.71C29.4544 15.004 28.3214 13.266 25.6044 13.266C22.8874 13.266 21.7544 15.004 21.7544 17.71C21.7544 20.416 22.8874 22.154 25.6044 22.154ZM25.6044 14.696C27.4414 14.696 27.8814 16.082 27.8814 17.71C27.8814 19.338 27.4414 20.724 25.6044 20.724C23.7674 20.724 23.3164 19.338 23.3164 17.71C23.3164 16.082 23.7674 14.696 25.6044 14.696ZM36.4287 14.85H38.9257V13.42H32.3917V14.85H34.8887V22H36.4287V14.85ZM43.2968 22.154C46.0138 22.154 47.1468 20.416 47.1468 17.71C47.1468 15.004 46.0138 13.266 43.2968 13.266C40.5798 13.266 39.4468 15.004 39.4468 17.71C39.4468 20.416 40.5798 22.154 43.2968 22.154ZM43.2968 14.696C45.1338 14.696 45.5738 16.082 45.5738 17.71C45.5738 19.338 45.1338 20.724 43.2968 20.724C41.4598 20.724 41.0088 19.338 41.0088 17.71C41.0088 16.082 41.4598 14.696 43.2968 14.696ZM52.3421 17.71C52.3421 16.115 52.6831 14.696 54.4431 14.696C55.5981 14.696 56.1041 15.125 56.2581 16.148L57.8091 15.983C57.6331 14.333 56.6431 13.266 54.4431 13.266C51.8031 13.266 50.7691 15.037 50.7691 17.71C50.7691 20.383 51.8031 22.154 54.4431 22.154C56.6431 22.154 57.6331 21.087 57.8091 19.437L56.2581 19.272C56.1041 20.295 55.5981 20.724 54.4431 20.724C52.6831 20.724 52.3421 19.305 52.3421 17.71ZM62.7939 22.154C65.5109 22.154 66.6439 20.416 66.6439 17.71C66.6439 15.004 65.5109 13.266 62.7939 13.266C60.0769 13.266 58.9439 15.004 58.9439 17.71C58.9439 20.416 60.0769 22.154 62.7939 22.154ZM62.7939 14.696C64.6309 14.696 65.0709 16.082 65.0709 17.71C65.0709 19.338 64.6309 20.724 62.7939 20.724C60.9569 20.724 60.5059 19.338 60.5059 17.71C60.5059 16.082 60.9569 14.696 62.7939 14.696ZM73.4041 22H74.8231V13.42H73.2831V17.105L73.3051 19.162L72.4581 17.842L69.4991 13.42H68.0801V22H69.6201V18.315L69.5981 16.258L70.4451 17.578L73.4041 22ZM76.4913 13.42V22H82.7833V20.57H78.0313V18.326H82.0573V16.896H78.0313V14.85H82.5743V13.42H76.4913ZM85.6214 17.71C85.6214 16.115 85.9624 14.696 87.7224 14.696C88.8774 14.696 89.3834 15.125 89.5374 16.148L91.0884 15.983C90.9124 14.333 89.9224 13.266 87.7224 13.266C85.0824 13.266 84.0484 15.037 84.0484 17.71C84.0484 20.383 85.0824 22.154 87.7224 22.154C89.9224 22.154 90.9124 21.087 91.0884 19.437L89.5374 19.272C89.3834 20.295 88.8774 20.724 87.7224 20.724C85.9624 20.724 85.6214 19.305 85.6214 17.71ZM95.6933 14.85H98.1903V13.42H91.6563V14.85H94.1533V22H95.6933V14.85ZM97.5062 22H99.1672L99.8382 20.053H103.226L103.897 22H105.558L102.434 13.31H100.63L97.5062 22ZM101.532 14.85L101.994 16.302L102.797 18.755H100.267L101.07 16.302L101.532 14.85ZM108.917 14.85H111.414V13.42H104.88V14.85H107.377V22H108.917V14.85ZM117.647 13.42V16.896H114.039V13.42H112.499V22H114.039V18.326H117.647V22H119.187V13.42H117.647ZM124.751 18.447L128.073 13.42H126.302L124.674 15.972L123.981 17.083L123.288 15.972L121.66 13.42H119.889L123.211 18.447V22H124.751V18.447ZM131.458 22.154C133.163 22.154 134.824 21.362 134.813 19.448C134.802 17.435 133.592 17.05 131.491 16.863C130.171 16.731 129.841 16.478 129.83 15.884C129.83 14.916 130.798 14.707 131.381 14.696C132.547 14.696 133.119 15.037 133.24 16.049L134.802 15.884C134.648 14.256 133.625 13.266 131.381 13.266C129.72 13.266 128.279 14.069 128.29 15.873C128.301 17.71 129.841 18.117 131.414 18.249C132.833 18.381 133.284 18.7 133.284 19.448C133.284 20.394 132.316 20.713 131.458 20.724C130.292 20.724 129.676 20.361 129.555 19.36L127.993 19.525C128.169 21.23 129.137 22.154 131.458 22.154ZM139.408 22.154C141.113 22.154 142.774 21.362 142.763 19.448C142.752 17.435 141.542 17.05 139.441 16.863C138.121 16.731 137.791 16.478 137.78 15.884C137.78 14.916 138.748 14.707 139.331 14.696C140.497 14.696 141.069 15.037 141.19 16.049L142.752 15.884C142.598 14.256 141.575 13.266 139.331 13.266C137.67 13.266 136.229 14.069 136.24 15.873C136.251 17.71 137.791 18.117 139.364 18.249C140.783 18.381 141.234 18.7 141.234 19.448C141.234 20.394 140.266 20.713 139.408 20.724C138.242 20.724 137.626 20.361 137.505 19.36L135.943 19.525C136.119 21.23 137.087 22.154 139.408 22.154ZM144.178 13.42V22H150.47V20.57H145.718V18.326H149.744V16.896H145.718V14.85H150.261V13.42H144.178ZM157.29 22H158.709V13.42H157.169V17.105L157.191 19.162L156.344 17.842L153.385 13.42H151.966V22H153.506V18.315L153.484 16.258L154.331 17.578L157.29 22Z" fill="#333333"/>
<path d="M0 0V-2H-2V0H0ZM172 0H174V-2H172V0ZM172 34V36H174V34H172ZM0 34H-2V36H0V34ZM0 2H172V-2H0V2ZM170 0V34H174V0H170ZM172 32H0V36H172V32ZM2 34V0H-2V34H2Z" fill="#333333"/>
</svg>
