<svg xmlns="http://www.w3.org/2000/svg" width="280" height="28" viewBox="0 0 280 28">
  <g fill="#131514" fill-rule="evenodd" transform="translate(.309 .026)">
    <path d="M161.086 25.953L164.857 25.953 164.857 24.964 162.199 24.964 162.199 19.7 161.086 19.7 161.086 25.953zM149.64 23.568L150.621 21.025 151.583 23.568 149.64 23.568zM147.45 25.953L148.695 25.953 149.26 24.523 151.972 24.523 152.555 25.953 153.826 25.953 151.133 19.7 150.17 19.7 147.45 25.953zM134.679 25.953L135.792 25.953 135.792 21.122 135.81 21.122 138.777 25.953 140.191 25.953 140.191 19.7 139.078 19.7 139.078 24.381 139.06 24.381 136.154 19.7 134.679 19.7 134.679 25.953zM121.605 21.908C121.707 21.631 121.853 21.39 122.042 21.184 122.23 20.978 122.455 20.816 122.717 20.698 122.979 20.581 123.272 20.522 123.596 20.522 123.919 20.522 124.214 20.581 124.479 20.698 124.744 20.816 124.971 20.978 125.159 21.184 125.347 21.39 125.493 21.631 125.596 21.908 125.699 22.185 125.751 22.485 125.751 22.809 125.751 23.145 125.699 23.452 125.596 23.732 125.493 24.012 125.346 24.254 125.155 24.46 124.963 24.667 124.735 24.827 124.47 24.941 124.205 25.057 123.914 25.114 123.596 25.114 123.278 25.114 122.988 25.057 122.726 24.941 122.464 24.827 122.237 24.667 122.046 24.46 121.855 24.254 121.707 24.012 121.605 23.732 121.501 23.452 121.45 23.145 121.45 22.809 121.45 22.485 121.501 22.185 121.605 21.908zM120.492 24.147C120.659 24.55 120.892 24.898 121.189 25.19 121.486 25.481 121.84 25.707 122.249 25.869 122.658 26.031 123.104 26.112 123.587 26.112 124.076 26.112 124.526 26.031 124.938 25.869 125.35 25.707 125.707 25.481 126.007 25.19 126.307 24.898 126.541 24.55 126.709 24.147 126.877 23.744 126.961 23.298 126.961 22.809 126.961 22.309 126.877 21.856 126.709 21.453 126.541 21.05 126.307 20.707 126.007 20.424 125.707 20.142 125.35 19.924 124.938 19.771 124.526 19.618 124.076 19.541 123.587 19.541 123.104 19.541 122.658 19.618 122.249 19.771 121.84 19.924 121.486 20.142 121.189 20.424 120.892 20.707 120.659 21.05 120.492 21.453 120.324 21.856 120.24 22.309 120.24 22.809 120.24 23.298 120.324 23.744 120.492 24.147zM111.408 25.953L112.521 25.953 112.521 19.7 111.408 19.7 111.408 25.953zM103.981 20.495C103.857 20.33 103.707 20.189 103.53 20.071 103.354 19.953 103.166 19.855 102.965 19.775 102.765 19.696 102.556 19.637 102.338 19.599 102.12 19.56 101.911 19.541 101.711 19.541 101.229 19.541 100.781 19.618 100.369 19.771 99.957 19.924 99.599 20.142 99.296 20.424 98.993 20.707 98.754 21.05 98.581 21.453 98.407 21.856 98.32 22.309 98.32 22.809 98.32 23.298 98.402 23.744 98.567 24.147 98.732 24.55 98.961 24.898 99.256 25.19 99.55 25.481 99.902 25.707 100.312 25.869 100.721 26.031 101.17 26.112 101.658 26.112 102.194 26.112 102.662 26.017 103.063 25.825 103.463 25.634 103.801 25.364 104.078 25.017L103.186 24.39C103.027 24.607 102.818 24.783 102.559 24.915 102.3 25.048 102.003 25.114 101.667 25.114 101.343 25.114 101.052 25.058 100.793 24.946 100.534 24.834 100.312 24.677 100.126 24.474 99.94 24.271 99.798 24.028 99.698 23.745 99.598 23.462 99.547 23.15 99.547 22.809 99.547 22.485 99.599 22.185 99.702 21.908 99.805 21.631 99.952 21.39 100.144 21.184 100.335 20.978 100.563 20.816 100.828 20.698 101.093 20.581 101.387 20.522 101.711 20.522 101.964 20.522 102.224 20.573 102.488 20.676 102.753 20.779 102.968 20.942 103.133 21.166L103.981 20.495zM87.334 23.568L88.314 21.025 89.276 23.568 87.334 23.568zM85.143 25.953L86.388 25.953 86.954 24.523 89.665 24.523 90.248 25.953 91.52 25.953 88.826 19.7 87.863 19.7 85.143 25.953zM72.373 25.953L73.485 25.953 73.485 21.122 73.503 21.122 76.471 25.953 77.884 25.953 77.884 19.7 76.771 19.7 76.771 24.381 76.753 24.381 73.848 19.7 72.373 19.7 72.373 25.953zM54.055 21.908C54.158 21.631 54.303 21.39 54.492 21.184 54.68 20.978 54.905 20.816 55.168 20.698 55.429 20.581 55.722 20.522 56.046 20.522 56.37 20.522 56.665 20.581 56.929 20.698 57.194 20.816 57.421 20.978 57.609 21.184 57.798 21.39 57.943 21.631 58.046 21.908 58.149 22.185 58.201 22.485 58.201 22.809 58.201 23.145 58.149 23.452 58.046 23.732 57.943 24.012 57.796 24.254 57.605 24.46 57.414 24.667 57.186 24.827 56.92 24.941 56.655 25.057 56.364 25.114 56.046 25.114 55.728 25.114 55.438 25.057 55.176 24.941 54.914 24.827 54.688 24.667 54.496 24.46 54.305 24.254 54.158 24.012 54.055 23.732 53.952 23.452 53.9 23.145 53.9 22.809 53.9 22.485 53.952 22.185 54.055 21.908zM52.942 24.147C53.109 24.55 53.342 24.898 53.64 25.19 53.937 25.481 54.29 25.707 54.699 25.869 55.108 26.031 55.554 26.112 56.037 26.112 56.526 26.112 56.977 26.031 57.389 25.869 57.801 25.707 58.157 25.481 58.457 25.19 58.757 24.898 58.991 24.55 59.159 24.147 59.327 23.744 59.411 23.298 59.411 22.809 59.411 22.309 59.327 21.856 59.159 21.453 58.991 21.05 58.757 20.707 58.457 20.424 58.157 20.142 57.801 19.924 57.389 19.771 56.977 19.618 56.526 19.541 56.037 19.541 55.554 19.541 55.108 19.618 54.699 19.771 54.29 19.924 53.937 20.142 53.64 20.424 53.342 20.707 53.109 21.05 52.942 21.453 52.774 21.856 52.69 22.309 52.69 22.809 52.69 23.298 52.774 23.744 52.942 24.147zM40.962 25.953L45.263 25.953 45.263 24.964 42.075 24.964 42.075 23.197 44.945 23.197 44.945 22.261 42.075 22.261 42.075 20.671 45.104 20.671 45.104 19.7 40.962 19.7 40.962 25.953zM33.164 20.212C32.922 19.989 32.638 19.821 32.312 19.709 31.985 19.597 31.662 19.541 31.344 19.541 31.062 19.541 30.784 19.578 30.51 19.651 30.236 19.725 29.992 19.837 29.777 19.987 29.562 20.137 29.388 20.327 29.256 20.557 29.123 20.787 29.057 21.06 29.057 21.378 29.057 21.673 29.104 21.919 29.198 22.116 29.293 22.313 29.415 22.479 29.565 22.615 29.715 22.75 29.884 22.859 30.073 22.941 30.261 23.024 30.449 23.095 30.638 23.153 30.832 23.218 31.018 23.28 31.194 23.339 31.371 23.398 31.524 23.467 31.653 23.546 31.783 23.626 31.886 23.72 31.962 23.829 32.039 23.938 32.078 24.075 32.078 24.239 32.078 24.41 32.044 24.553 31.976 24.668 31.908 24.783 31.82 24.879 31.711 24.955 31.602 25.031 31.48 25.086 31.344 25.118 31.209 25.15 31.076 25.167 30.947 25.167 30.7 25.167 30.448 25.106 30.192 24.981 29.936 24.857 29.731 24.69 29.578 24.479L28.783 25.22C29.03 25.515 29.349 25.736 29.737 25.887 30.126 26.037 30.523 26.112 30.929 26.112 31.235 26.112 31.527 26.07 31.804 25.988 32.08 25.906 32.322 25.782 32.528 25.617 32.734 25.452 32.899 25.245 33.023 24.995 33.146 24.744 33.208 24.451 33.208 24.116 33.208 23.81 33.15 23.554 33.036 23.348 32.921 23.142 32.774 22.971 32.594 22.835 32.415 22.7 32.217 22.591 32.003 22.509 31.788 22.426 31.58 22.353 31.38 22.288 31.203 22.235 31.041 22.182 30.894 22.129 30.747 22.076 30.622 22.014 30.519 21.943 30.416 21.873 30.335 21.788 30.276 21.687 30.217 21.587 30.188 21.466 30.188 21.325 30.188 21.172 30.221 21.041 30.289 20.932 30.357 20.823 30.443 20.735 30.55 20.667 30.656 20.6 30.774 20.549 30.903 20.517 31.032 20.485 31.162 20.468 31.292 20.468 31.509 20.468 31.726 20.52 31.94 20.623 32.155 20.726 32.322 20.854 32.44 21.007L33.164 20.212zM21.285 19.7L20.172 19.7 20.172 23.613C20.172 23.795 20.149 23.976 20.102 24.155 20.055 24.335 19.977 24.496 19.868 24.637 19.759 24.778 19.615 24.894 19.435 24.981 19.255 25.069 19.033 25.114 18.769 25.114 18.503 25.114 18.281 25.069 18.102 24.981 17.922 24.894 17.778 24.778 17.669 24.637 17.56 24.496 17.482 24.335 17.435 24.155 17.388 23.976 17.364 23.795 17.364 23.613L17.364 19.7 16.252 19.7 16.252 23.657C16.252 24.034 16.315 24.374 16.441 24.677 16.568 24.981 16.744 25.237 16.971 25.449 17.198 25.661 17.464 25.825 17.771 25.94 18.077 26.055 18.409 26.112 18.769 26.112 19.128 26.112 19.46 26.055 19.766 25.94 20.072 25.825 20.337 25.661 20.561 25.449 20.785 25.237 20.961 24.981 21.091 24.677 21.221 24.374 21.285 24.034 21.285 23.657L21.285 19.7zM1.538 25.953L2.598 25.953 2.598 20.928 2.615 20.928 4.488 25.953 5.265 25.953 7.164 20.928 7.181 20.928 7.181 25.953 8.285 25.953 8.285 19.7 6.537 19.7 4.929 24.143 4.903 24.143 3.278 19.7 1.538 19.7 1.538 25.953 1.538 25.953zM159.922 5.776L161.329 2.127 162.71 5.776 159.922 5.776zM156.781 9.196L158.567 9.196 159.378 7.144 163.267 7.144 164.103 9.196 165.927 9.196 162.063.228 160.683.228 156.781 9.196zM148.319 9.196L155.172 9.196 155.172 7.777 150.194 7.777 155.096 1.671 155.096.228 148.396.228 148.396 1.621 153.196 1.621 148.319 7.752 148.319 9.196zM145.938.962C145.592.641 145.185.401 144.716.24 144.247.08 143.785 0 143.329 0 142.923 0 142.524.052 142.131.158 141.739.264 141.388.424 141.08.639 140.772.855 140.523 1.127 140.333 1.456 140.143 1.786 140.048 2.178 140.048 2.634 140.048 3.057 140.115 3.409 140.251 3.692 140.385 3.975 140.561 4.213 140.776 4.408 140.992 4.602 141.234 4.758 141.504 4.877 141.775 4.995 142.045 5.096 142.316 5.181 142.594 5.273 142.86 5.362 143.113 5.446 143.367 5.531 143.586 5.63 143.772 5.744 143.958 5.858 144.106 5.993 144.215 6.149 144.325 6.306 144.38 6.502 144.38 6.739 144.38 6.983 144.332 7.189 144.234 7.353 144.137 7.518 144.01 7.655 143.855 7.765 143.698 7.875 143.523 7.953 143.329 7.999 143.134 8.045 142.944 8.069 142.759 8.069 142.404 8.069 142.043 7.98 141.676 7.803 141.308 7.626 141.015 7.385 140.795 7.081L139.655 8.145C140.01 8.567 140.466 8.886 141.023 9.101 141.581 9.316 142.15 9.424 142.733 9.424 143.172 9.424 143.59 9.365 143.987 9.247 144.384 9.128 144.731 8.951 145.026 8.715 145.322 8.479 145.558 8.181 145.735 7.822 145.913 7.463 146.002 7.043 146.002 6.561 146.002 6.122 145.919 5.755 145.754 5.459 145.59 5.164 145.379 4.919 145.121 4.725 144.863 4.53 144.581 4.374 144.273 4.256 143.964 4.138 143.667 4.032 143.379 3.939 143.126 3.863 142.894 3.787 142.683 3.711 142.471 3.635 142.292 3.546 142.144 3.445 141.997 3.344 141.88 3.221 141.796 3.078 141.712 2.934 141.67 2.761 141.67 2.558 141.67 2.339 141.718 2.151 141.815 1.995 141.912 1.838 142.037 1.712 142.189 1.615 142.34 1.518 142.509 1.446 142.695 1.399 142.881 1.353 143.067 1.33 143.253 1.33 143.565 1.33 143.876 1.404 144.184 1.551 144.492 1.699 144.731 1.883 144.899 2.102L145.938.962zM135.488 9.196L137.084 9.196 137.084.228 135.488.228 135.488 9.196zM122.567 9.196L124.087 9.196 124.087 1.988 124.112 1.988 126.798 9.196 127.913 9.196 130.636 1.988 130.662 1.988 130.662 9.196 132.245 9.196 132.245.228 129.737.228 127.431 6.599 127.394 6.599 125.063.228 122.567.228 122.567 9.196zM113.574 9.196L119.743 9.196 119.743 7.777 115.169 7.777 115.169 5.244 119.287 5.244 119.287 3.901 115.169 3.901 115.169 1.621 119.515 1.621 119.515.228 113.574.228 113.574 9.196zM102.426 9.196L104.023 9.196 104.023 2.267 104.048 2.267 108.304 9.196 110.331 9.196 110.331.228 108.735.228 108.735 6.941 108.71 6.941 104.542.228 102.426.228 102.426 9.196zM94.788 4.091L94.788 1.57 96.232 1.57C96.435 1.57 96.644 1.587 96.859 1.621 97.075 1.655 97.267 1.718 97.436 1.811 97.605 1.904 97.744 2.028 97.854 2.185 97.963 2.341 98.018 2.542 98.018 2.786 98.018 3.057 97.959 3.278 97.841 3.451 97.723 3.625 97.573 3.757 97.391 3.851 97.21 3.943 97.005 4.007 96.777 4.041 96.549 4.074 96.321 4.091 96.093 4.091L94.788 4.091zM93.192 9.196L94.788 9.196 94.788 5.396 95.954 5.396 98.031 9.196 99.957 9.196 97.562 5.218C98.196 5.075 98.696 4.798 99.064 4.389 99.431 3.979 99.614 3.449 99.614 2.799 99.614 2.326 99.522 1.925 99.336 1.596 99.15 1.266 98.903 1 98.595.797 98.286.595 97.934.449 97.537.36 97.14.272 96.731.228 96.308.228L93.192.228 93.192 9.196zM82.697 3.395C82.845 2.998 83.054 2.651 83.324 2.356 83.594 2.06 83.918 1.828 84.294 1.659 84.669 1.49 85.089 1.406 85.554 1.406 86.018 1.406 86.44 1.49 86.82 1.659 87.201 1.828 87.525 2.06 87.796 2.356 88.066 2.651 88.275 2.998 88.423 3.395 88.57 3.792 88.645 4.222 88.645 4.687 88.645 5.168 88.57 5.609 88.423 6.01 88.275 6.412 88.064 6.76 87.79 7.055 87.515 7.351 87.188 7.581 86.808 7.746 86.428 7.91 86.01 7.993 85.554 7.993 85.098 7.993 84.682 7.91 84.306 7.746 83.93 7.581 83.605 7.351 83.331 7.055 83.056 6.76 82.845 6.412 82.697 6.01 82.549 5.609 82.476 5.168 82.476 4.687 82.476 4.222 82.549 3.792 82.697 3.395zM81.101 6.606C81.342 7.184 81.675 7.682 82.102 8.1 82.528 8.519 83.035 8.844 83.622 9.076 84.209 9.308 84.849 9.424 85.541 9.424 86.242 9.424 86.888 9.308 87.479 9.076 88.07 8.844 88.581 8.519 89.012 8.1 89.442 7.682 89.778 7.184 90.019 6.606 90.26 6.027 90.38 5.388 90.38 4.687 90.38 3.969 90.26 3.32 90.019 2.742 89.778 2.164 89.442 1.671 89.012 1.266 88.581.861 88.07.548 87.479.329 86.888.109 86.242 0 85.541 0 84.849 0 84.209.109 83.622.329 83.035.548 82.528.861 82.102 1.266 81.675 1.671 81.342 2.164 81.101 2.742 80.86 3.32 80.74 3.969 80.74 4.687 80.74 5.388 80.86 6.027 81.101 6.606zM73.305 5.244L74.799 5.244C75.45 5.244 75.935 5.337 76.256 5.523 76.577 5.709 76.737 6.038 76.737 6.511 76.737 6.806 76.672 7.043 76.541 7.22 76.41 7.398 76.246 7.532 76.047 7.626 75.849 7.718 75.631 7.779 75.395 7.809 75.158 7.839 74.939 7.854 74.736 7.854L73.305 7.854 73.305 5.244zM73.305 1.545L74.584 1.545C75.192 1.545 75.64 1.629 75.927 1.798 76.214 1.967 76.357 2.254 76.357 2.66 76.357 3.048 76.218 3.348 75.94 3.559 75.661 3.77 75.255 3.876 74.724 3.876L73.305 3.876 73.305 1.545zM71.709 9.196L74.939 9.196C75.361 9.196 75.777 9.152 76.187 9.063 76.596 8.974 76.959 8.829 77.276 8.626 77.592 8.423 77.848 8.155 78.042 7.822 78.236 7.488 78.334 7.076 78.334 6.586 78.334 5.979 78.152 5.493 77.789 5.13 77.426 4.767 76.961 4.547 76.396 4.471L76.396 4.446C76.86 4.302 77.236 4.066 77.523 3.736 77.81 3.407 77.954 2.989 77.954 2.482 77.954 2.077 77.873 1.731 77.713 1.443 77.552 1.157 77.343.922 77.086.741 76.828.559 76.535.428 76.206.348 75.876.268 75.543.228 75.205.228L71.709.228 71.709 9.196zM65.907 5.966L68.947 5.966 68.947 4.674 65.907 4.674 65.907 5.966zM55.241 9.196L56.837 9.196 56.837 2.267 56.863 2.267 61.119 9.196 63.146 9.196 63.146.228 61.55.228 61.55 6.941 61.524 6.941 57.357.228 55.241.228 55.241 9.196zM46.248 9.196L52.417 9.196 52.417 7.777 47.844 7.777 47.844 5.244 51.961 5.244 51.961 3.901 47.844 3.901 47.844 1.621 52.189 1.621 52.189.228 46.248.228 46.248 9.196zM43.322.962C42.976.641 42.568.401 42.1.24 41.631.08 41.169 0 40.712 0 40.307 0 39.908.052 39.515.158 39.123.264 38.772.424 38.464.639 38.156.855 37.907 1.127 37.716 1.456 37.526 1.786 37.432 2.178 37.432 2.634 37.432 3.057 37.499 3.409 37.634 3.692 37.769 3.975 37.944 4.213 38.16 4.408 38.375 4.602 38.618 4.758 38.888 4.877 39.158 4.995 39.429 5.096 39.699 5.181 39.978 5.273 40.244 5.362 40.497 5.446 40.751 5.531 40.97 5.63 41.156 5.744 41.341 5.858 41.489 5.993 41.599 6.149 41.709 6.306 41.764 6.502 41.764 6.739 41.764 6.983 41.715 7.189 41.618 7.353 41.521 7.518 41.394 7.655 41.238 7.765 41.082 7.875 40.906 7.953 40.712 7.999 40.518 8.045 40.328 8.069 40.142 8.069 39.788 8.069 39.427 7.98 39.059 7.803 38.692 7.626 38.399 7.385 38.179 7.081L37.039 8.145C37.394 8.567 37.85 8.886 38.407 9.101 38.964 9.316 39.534 9.424 40.117 9.424 40.556 9.424 40.974 9.365 41.371 9.247 41.768 9.128 42.114 8.951 42.41 8.715 42.705 8.479 42.942 8.181 43.119 7.822 43.296 7.463 43.385 7.043 43.385 6.561 43.385 6.122 43.303 5.755 43.138 5.459 42.974 5.164 42.762 4.919 42.505 4.725 42.247 4.53 41.964 4.374 41.656 4.256 41.348 4.138 41.05 4.032 40.763 3.939 40.51 3.863 40.277 3.787 40.066 3.711 39.855 3.635 39.676 3.546 39.528 3.445 39.38 3.344 39.264 3.221 39.18 3.078 39.095 2.934 39.053 2.761 39.053 2.558 39.053 2.339 39.102 2.151 39.199 1.995 39.295 1.838 39.42 1.712 39.572 1.615 39.724 1.518 39.893 1.446 40.079 1.399 40.265 1.353 40.451 1.33 40.636 1.33 40.949 1.33 41.259 1.404 41.567 1.551 41.876 1.699 42.114 1.883 42.283 2.102L43.322.962zM34.784.962C34.438.641 34.03.401 33.562.24 33.093.08 32.631 0 32.175 0 31.77 0 31.371.052 30.978.158 30.585.264 30.234.424 29.926.639 29.618.855 29.369 1.127 29.179 1.456 28.989 1.786 28.894 2.178 28.894 2.634 28.894 3.057 28.961 3.409 29.097 3.692 29.232 3.975 29.407 4.213 29.622 4.408 29.837 4.602 30.08 4.758 30.351 4.877 30.621 4.995 30.891 5.096 31.161 5.181 31.44 5.273 31.706 5.362 31.96 5.446 32.213 5.531 32.432 5.63 32.618 5.744 32.804 5.858 32.952 5.993 33.062 6.149 33.171 6.306 33.226 6.502 33.226 6.739 33.226 6.983 33.177 7.189 33.081 7.353 32.983 7.518 32.857 7.655 32.701 7.765 32.544 7.875 32.369 7.953 32.175 7.999 31.981 8.045 31.791 8.069 31.605 8.069 31.25 8.069 30.889 7.98 30.522 7.803 30.154 7.626 29.861 7.385 29.641 7.081L28.502 8.145C28.856 8.567 29.312 8.886 29.869 9.101 30.427 9.316 30.997 9.424 31.58 9.424 32.019 9.424 32.437 9.365 32.834 9.247 33.231 9.128 33.577 8.951 33.872 8.715 34.168 8.479 34.404 8.181 34.582 7.822 34.759 7.463 34.848 7.043 34.848 6.561 34.848 6.122 34.765 5.755 34.601 5.459 34.436 5.164 34.225 4.919 33.967 4.725 33.71 4.53 33.427 4.374 33.119 4.256 32.81 4.138 32.512 4.032 32.226 3.939 31.972 3.863 31.74 3.787 31.529 3.711 31.317 3.635 31.138 3.546 30.99 3.445 30.842 3.344 30.727 3.221 30.642 3.078 30.558 2.934 30.515 2.761 30.515 2.558 30.515 2.339 30.564 2.151 30.661 1.995 30.758 1.838 30.883 1.712 31.035 1.615 31.187 1.518 31.356 1.446 31.542 1.399 31.727 1.353 31.913 1.33 32.099 1.33 32.411 1.33 32.721 1.404 33.03 1.551 33.338 1.699 33.577 1.883 33.746 2.102L34.784.962zM22.193 9.196L23.789 9.196 23.789 5.307 27.159.228 25.309.228 23.029 4.002 20.774.228 18.824.228 22.193 5.307 22.193 9.196zM9.399 9.196L10.995 9.196 10.995 5.218 15.188 5.218 15.188 9.196 16.784 9.196 16.784.228 15.188.228 15.188 3.851 10.995 3.851 10.995.228 9.399.228 9.399 9.196zM2.749 9.196L4.345 9.196 4.345 1.621 7.094 1.621 7.094.228-1.42108547e-14.228-1.42108547e-14 1.621 2.749 1.621 2.749 9.196 2.749 9.196z"/>
    <polygon fill="#706F6F" points="183.607 26.04 183.906 26.04 183.906 .307 183.607 .307"/>
    <polyline fill="#706F6F" points="203.8 7.56 208.106 7.56 208.106 8.584 202.649 8.584 202.649 .346 207.931 .346 207.931 1.358 203.8 1.358 203.8 3.825 207.687 3.825 207.687 4.814 203.8 4.814 203.8 7.56"/>
    <polyline fill="#706F6F" points="213.133 7.094 213.168 7.094 215.646 .346 216.891 .346 213.656 8.584 212.586 8.584 209.375 .346 210.654 .346 213.133 7.094"/>
    <polyline fill="#706F6F" points="219.776 7.56 224.082 7.56 224.082 8.584 218.625 8.584 218.625 .346 223.907 .346 223.907 1.358 219.776 1.358 219.776 3.825 223.663 3.825 223.663 4.814 219.776 4.814 219.776 7.56"/>
    <path fill="#706F6F" d="M227.526,3.953 L228.853,3.953 C229.125,3.953 229.377,3.93 229.609,3.883 C229.842,3.837 230.045,3.761 230.22,3.656 C230.395,3.552 230.532,3.416 230.633,3.249 C230.733,3.083 230.784,2.875 230.784,2.627 C230.784,2.378 230.733,2.171 230.633,2.004 C230.532,1.838 230.398,1.704 230.232,1.603 C230.065,1.502 229.869,1.43 229.644,1.387 C229.419,1.345 229.183,1.323 228.935,1.323 L227.526,1.323 L227.526,3.953 Z M227.526,8.584 L226.374,8.584 L226.374,0.346 L229.016,0.346 C229.412,0.346 229.788,0.387 230.145,0.468 C230.501,0.549 230.814,0.68 231.081,0.858 C231.349,1.037 231.56,1.271 231.715,1.562 C231.871,1.853 231.948,2.208 231.948,2.627 C231.948,3.231 231.762,3.72 231.39,4.093 C231.017,4.465 230.536,4.702 229.946,4.802 L232.25,8.584 L230.855,8.584 L228.76,4.919 L227.526,4.919 L227.526,8.584 L227.526,8.584 Z"/>
    <polyline fill="#706F6F" points="237.405 8.584 236.242 8.584 236.242 5.023 233.158 .346 234.578 .346 236.859 4.069 239.151 .346 240.488 .346 237.405 5.023 237.405 8.584"/>
    <path fill="#706F6F" d="M248.971,4.453 C248.971,4.004 248.898,3.579 248.751,3.179 C248.603,2.78 248.394,2.429 248.122,2.127 C247.851,1.824 247.523,1.585 247.139,1.411 C246.755,1.236 246.322,1.149 245.841,1.149 C245.368,1.149 244.94,1.236 244.556,1.411 C244.172,1.585 243.846,1.824 243.578,2.127 C243.311,2.429 243.103,2.78 242.956,3.179 C242.808,3.579 242.735,4.004 242.735,4.453 C242.735,4.911 242.808,5.341 242.956,5.745 C243.103,6.148 243.313,6.5 243.585,6.798 C243.856,7.097 244.182,7.332 244.562,7.502 C244.942,7.673 245.368,7.758 245.841,7.758 C246.315,7.758 246.745,7.673 247.133,7.502 C247.521,7.332 247.851,7.097 248.122,6.798 C248.394,6.5 248.603,6.148 248.751,5.745 C248.898,5.341 248.971,4.911 248.971,4.453 Z M250.216,4.453 C250.216,5.089 250.106,5.673 249.885,6.205 C249.664,6.736 249.359,7.193 248.971,7.578 C248.584,7.961 248.122,8.26 247.587,8.474 C247.051,8.687 246.47,8.794 245.841,8.794 C245.213,8.794 244.633,8.687 244.102,8.474 C243.571,8.26 243.111,7.961 242.723,7.578 C242.336,7.193 242.033,6.736 241.816,6.205 C241.598,5.673 241.49,5.089 241.49,4.453 C241.49,3.81 241.598,3.222 241.816,2.691 C242.033,2.159 242.336,1.706 242.723,1.329 C243.111,0.953 243.571,0.66 244.102,0.451 C244.633,0.241 245.213,0.136 245.841,0.136 C246.47,0.136 247.051,0.241 247.587,0.451 C248.122,0.66 248.584,0.953 248.971,1.329 C249.359,1.706 249.664,2.159 249.885,2.691 C250.106,3.222 250.216,3.81 250.216,4.453 L250.216,4.453 Z"/>
    <polyline fill="#706F6F" points="258.35 6.932 258.373 6.932 258.373 .346 259.525 .346 259.525 8.584 258.07 8.584 253.719 1.859 253.695 1.859 253.695 8.584 252.543 8.584 252.543 .346 254.044 .346 258.35 6.932"/>
    <polyline fill="#706F6F" points="263.434 7.56 267.74 7.56 267.74 8.584 262.283 8.584 262.283 .346 267.565 .346 267.565 1.358 263.434 1.358 263.434 3.825 267.321 3.825 267.321 4.814 263.434 4.814 263.434 7.56"/>
    <polyline fill="#706F6F" points="270.439 3.255 269.52 3.255 270.323 .346 271.405 .346 270.439 3.255"/>
    <path fill="#706F6F" d="M277.747,1.871 C277.584,1.646 277.363,1.461 277.083,1.317 C276.804,1.174 276.49,1.103 276.141,1.103 C275.955,1.103 275.767,1.128 275.576,1.178 C275.386,1.229 275.214,1.31 275.059,1.422 C274.904,1.535 274.778,1.674 274.681,1.841 C274.584,2.008 274.535,2.208 274.535,2.44 C274.535,2.666 274.58,2.854 274.669,3.005 C274.758,3.156 274.878,3.284 275.03,3.389 C275.181,3.494 275.359,3.583 275.565,3.656 C275.77,3.73 275.989,3.806 276.223,3.883 C276.502,3.969 276.785,4.065 277.072,4.174 C277.359,4.283 277.619,4.426 277.851,4.605 C278.085,4.783 278.274,5.006 278.421,5.273 C278.569,5.541 278.642,5.88 278.642,6.292 C278.642,6.719 278.563,7.089 278.404,7.403 C278.245,7.717 278.034,7.977 277.77,8.183 C277.506,8.388 277.202,8.542 276.856,8.642 C276.511,8.743 276.156,8.794 275.792,8.794 C275.272,8.794 274.77,8.693 274.285,8.491 C273.8,8.29 273.398,7.991 273.081,7.595 L273.977,6.838 C274.17,7.126 274.43,7.358 274.756,7.537 C275.082,7.715 275.435,7.804 275.815,7.804 C276.009,7.804 276.203,7.777 276.397,7.723 C276.591,7.669 276.767,7.584 276.926,7.467 C277.086,7.351 277.215,7.205 277.316,7.031 C277.417,6.856 277.467,6.645 277.467,6.397 C277.467,6.148 277.415,5.941 277.311,5.774 C277.206,5.607 277.064,5.466 276.886,5.35 C276.707,5.233 276.5,5.134 276.263,5.053 C276.026,4.971 275.776,4.888 275.513,4.802 C275.249,4.725 274.989,4.63 274.733,4.518 C274.477,4.405 274.248,4.262 274.046,4.086 C273.845,3.912 273.682,3.697 273.558,3.441 C273.434,3.185 273.372,2.867 273.372,2.487 C273.372,2.076 273.455,1.723 273.622,1.428 C273.788,1.133 274.006,0.889 274.273,0.695 C274.541,0.501 274.843,0.36 275.181,0.271 C275.518,0.181 275.858,0.136 276.199,0.136 C276.68,0.136 277.13,0.222 277.549,0.393 C277.967,0.564 278.305,0.793 278.561,1.08 L277.747,1.871"/>
    <polyline fill="#706F6F" points="206.907 24.056 206.931 24.056 209.362 17.726 211.154 17.726 211.154 25.964 210.003 25.964 210.003 19.075 209.979 19.075 207.245 25.964 206.512 25.964 203.789 19.075 203.766 19.075 203.766 25.964 202.649 25.964 202.649 17.726 204.441 17.726 206.907 24.056"/>
    <path fill="#706F6F" d="M217.054 26.173C216.511 26.173 216.037 26.081 215.634 25.899 215.231 25.718 214.897 25.476 214.633 25.173 214.37 24.87 214.173 24.523 214.046 24.131 213.918 23.739 213.854 23.334 213.854 22.915L213.854 17.726 215.005 17.726 215.005 22.845C215.005 23.125 215.041 23.402 215.11 23.677 215.18 23.953 215.295 24.199 215.454 24.416 215.612 24.634 215.822 24.808 216.082 24.94 216.342 25.072 216.666 25.138 217.054 25.138 217.434 25.138 217.755 25.072 218.019 24.94 218.283 24.808 218.494 24.634 218.654 24.416 218.813 24.199 218.927 23.953 218.997 23.677 219.066 23.402 219.102 23.125 219.102 22.845L219.102 17.726 220.253 17.726 220.253 22.915C220.253 23.334 220.19 23.739 220.062 24.131 219.933 24.523 219.738 24.87 219.474 25.173 219.21 25.476 218.877 25.718 218.473 25.899 218.07 26.081 217.596 26.173 217.054 26.173M227.048 19.25C226.885 19.025 226.664 18.841 226.385 18.697 226.106 18.554 225.792 18.482 225.442 18.482 225.256 18.482 225.068 18.507 224.878 18.557 224.688 18.608 224.515 18.69 224.36 18.802 224.205 18.915 224.079 19.054 223.982 19.221 223.885 19.388 223.837 19.587 223.837 19.82 223.837 20.045 223.881 20.233 223.97 20.385 224.06 20.536 224.18 20.664 224.331 20.769 224.483 20.873 224.661 20.962 224.866 21.036 225.072 21.109 225.291 21.186 225.524 21.263 225.803 21.348 226.086 21.445 226.373 21.554 226.66 21.663 226.92 21.806 227.153 21.984 227.386 22.163 227.576 22.386 227.723 22.653 227.87 22.921 227.944 23.26 227.944 23.671 227.944 24.099 227.864 24.469 227.706 24.782 227.546 25.097 227.335 25.356 227.072 25.562 226.808 25.768 226.503 25.921 226.158 26.022 225.813 26.122 225.458 26.173 225.093 26.173 224.573 26.173 224.071 26.072 223.586 25.87 223.102 25.669 222.7 25.37 222.382 24.975L223.278 24.218C223.472 24.505 223.732 24.738 224.058 24.916 224.384 25.095 224.736 25.184 225.117 25.184 225.311 25.184 225.504 25.157 225.698 25.103 225.892 25.048 226.069 24.963 226.228 24.847 226.387 24.731 226.516 24.585 226.618 24.41 226.718 24.236 226.769 24.025 226.769 23.776 226.769 23.528 226.717 23.32 226.612 23.154 226.507 22.987 226.366 22.845 226.187 22.729 226.008 22.612 225.801 22.514 225.565 22.432 225.328 22.351 225.078 22.268 224.814 22.182 224.55 22.105 224.291 22.009 224.034 21.897 223.778 21.784 223.549 21.641 223.348 21.466 223.146 21.292 222.983 21.077 222.859 20.821 222.735 20.565 222.673 20.247 222.673 19.867 222.673 19.456 222.756 19.103 222.923 18.808 223.09 18.513 223.307 18.269 223.575 18.075 223.842 17.881 224.145 17.739 224.483 17.65 224.82 17.561 225.159 17.516 225.501 17.516 225.982 17.516 226.431 17.602 226.85 17.772 227.269 17.943 227.607 18.172 227.863 18.459L227.048 19.25"/>
    <polyline fill="#706F6F" points="231.481 24.94 235.786 24.94 235.786 25.964 230.329 25.964 230.329 17.726 235.612 17.726 235.612 18.738 231.481 18.738 231.481 21.205 235.367 21.205 235.367 22.193 231.481 22.193 231.481 24.94"/>
    <path fill="#706F6F" d="M241.22,26.173 C240.677,26.173 240.204,26.081 239.8,25.899 C239.397,25.718 239.064,25.476 238.8,25.173 C238.537,24.87 238.34,24.523 238.212,24.131 C238.084,23.739 238.021,23.334 238.021,22.915 L238.021,17.726 L239.172,17.726 L239.172,22.845 C239.172,23.125 239.207,23.402 239.277,23.677 C239.347,23.953 239.461,24.199 239.62,24.416 C239.779,24.634 239.989,24.808 240.249,24.94 C240.509,25.072 240.832,25.138 241.22,25.138 C241.6,25.138 241.922,25.072 242.186,24.94 C242.45,24.808 242.661,24.634 242.82,24.416 C242.979,24.199 243.094,23.953 243.163,23.677 C243.233,23.402 243.268,23.125 243.268,22.845 L243.268,17.726 L244.42,17.726 L244.42,22.915 C244.42,23.334 244.356,23.739 244.228,24.131 C244.1,24.523 243.904,24.87 243.64,25.173 C243.377,25.476 243.043,25.718 242.64,25.899 C242.236,26.081 241.763,26.173 241.22,26.173"/>
    <polyline fill="#706F6F" points="251.378 24.056 251.401 24.056 253.834 17.726 255.625 17.726 255.625 25.964 254.473 25.964 254.473 19.075 254.45 19.075 251.716 25.964 250.983 25.964 248.26 19.075 248.237 19.075 248.237 25.964 247.119 25.964 247.119 17.726 248.912 17.726 251.378 24.056"/>
  </g>
</svg>
